<?xml version="1.0" encoding="utf-8"?>
<!-- Generator: Adobe Illustrator 18.1.1, SVG Export Plug-In . SVG Version: 6.00 Build 0)  -->
<!DOCTYPE svg PUBLIC "-//W3C//DTD SVG 1.1//EN" "http://www.w3.org/Graphics/SVG/1.1/DTD/svg11.dtd">
<svg version="1.1" id="Layer_1" xmlns="http://www.w3.org/2000/svg" xmlns:xlink="http://www.w3.org/1999/xlink" x="0px" y="0px"
	 width="480px" height="80px" viewBox="0 0 480 80" enable-background="new 0 0 480 80" xml:space="preserve">

	 <!-- 房子-->
	 <polygon id="color_10_" fill="#FFFFFF" points="40,24.7 34,29.8 34,26 30,26 30,33.3 24.6,37.9 25.9,39.4 40,27.3 54.1,39.4 
	55.4,37.9 "/>

<g transform="translate(337, 18) scale(2)"><!-- Video -->
	<path fill="#FFFFFF" d="M21.80731,7.805a2.79915,2.79915,0,0,0-2.54907-2.53906C17.69061,5.13586,15.36707,5,12.50012,5c-3.45251,0-6.05865.14105-7.74353.27332A2.79932,2.79932,0,0,0,2.1925,7.815C2.08936,8.90021,2,10.33344,2,12.0423c0,1.66632.08862,3.07422.19128,4.14594a2.79852,2.79852,0,0,0,2.56384,2.53833C6.43994,18.85883,9.04657,19,12.50012,19c2.86694,0,5.19049-.13586,6.75812-.266a2.799,2.799,0,0,0,2.54907-2.539C21.91052,15.11548,22,13.69189,22,12S21.91052,8.88452,21.80731,7.805ZM9.77594,14.93878V9.06122L15.574,12Z"/>
</g>
<g transform="translate(105, 25) scale(1.35)">  <!--衣櫃 -->

	<path fill="#FFFFFF" d="M21,0H2C1.4,0,1,0.4,1,1v23h21V1C22,0.4,21.6,0,21,0z M3,2h8v18H3V2z M3,22v-1h8v1H3z M20,22h-8v-1h8V22z M20,20h-8V2h8V20   z"/>
	<path fill="#FFFFFF" d="M9.5,8C9.2,8,9,8.2,9,8.5v7C9,15.8,9.2,16,9.5,16s0.5-0.2,0.5-0.5v-7C10,8.2,9.8,8,9.5,8z"/>
	<path fill="#FFFFFF" d="M13.5,16c0.3,0,0.5-0.2,0.5-0.5v-7C14,8.2,13.8,8,13.5,8S13,8.2,13,8.5v7C13,15.8,13.2,16,13.5,16z"/>
	
</g>
<g transform="translate(417, 16.5) scale(0.09)"> <!--人-->
	<path fill="#FFFFFF" d="M119.6,214.19a60.76,60.76,0,0,1-30.7-8.31c-22.11-12.95-33.28-39.07-27.78-65l17.16-81A15,15,0,0,1,93,48H165.4a15,15,0,0,1,15,15v90.39A60.87,60.87,0,0,1,119.6,214.19ZM105.11,78,90.47,147.1c-2.77,13.06,2.82,26.59,13.59,32.9a30.82,30.82,0,0,0,46.34-26.61V78Z"/>
	<path fill="#FFFFFF" d="M211.2,214.19a60.86,60.86,0,0,1-60.8-60.8V63a15,15,0,0,1,15-15H257a15,15,0,0,1,15,15v90.39A60.87,60.87,0,0,1,211.2,214.19ZM180.4,78v75.39a30.8,30.8,0,0,0,61.6,0V78Z"/>
	<path fill="#FFFFFF" d="M302.8,214.19a60.86,60.86,0,0,1-60.8-60.8V63a15,15,0,0,1,15-15h91.6a15,15,0,0,1,15,15v90.39A60.87,60.87,0,0,1,302.8,214.19ZM272,78v75.39a30.8,30.8,0,0,0,61.6,0V78Z"/>
	<path fill="#FFFFFF" d="M394.39,214.19a60.86,60.86,0,0,1-60.79-60.8V63a15,15,0,0,1,15-15H421a15,15,0,0,1,14.67,11.89l17.17,81c5.49,25.93-5.68,52.05-27.79,65A60.73,60.73,0,0,1,394.39,214.19ZM363.6,78v75.39A30.82,30.82,0,0,0,409.93,180c10.77-6.31,16.36-19.84,13.6-32.9L408.88,78Z"/>
	<path fill="#FFFFFF" d="M424.75,447.46H89.24a15,15,0,0,1-15-15V187.6a15,15,0,0,1,30,0V417.46H409.75V187.6a15,15,0,0,1,30,0V432.46A15,15,0,0,1,424.75,447.46Z"/>
	<path fill="#FFFFFF" d="M230.78,447.46h-91.6a15,15,0,0,1-15-15V261.87a15,15,0,0,1,15-15h91.6a15,15,0,0,1,15,15V432.46A15,15,0,0,1,230.78,447.46Zm-76.6-30h61.6V276.87h-61.6Z"/>
	<path fill="#FFFFFF" d="M374.81,393.08h-91.6a15,15,0,0,1-15-15V261.87a15,15,0,0,1,15-15h91.6a15,15,0,0,1,15,15V378.08A15,15,0,0,1,374.81,393.08Zm-76.6-30h61.6V276.87h-61.6Z"/>
</g>
<g transform="translate(257, 16) scale(0.09)"> <!-- info -->
		<path fill="#FFFFFF" d="M480,253C478.3,129.3,376.7,30.4,253,32S30.4,135.3,32,259c1.7,123.7,103.3,222.6,227,221C382.7,478.3,481.7,376.7,480,253   z M256,111.9c17.7,0,32,14.3,32,32s-14.3,32-32,32c-17.7,0-32-14.3-32-32S238.3,111.9,256,111.9z M300,395h-88v-11h22V224h-22v-12   h66v172h22V395z"/>
</g>

<g transform="translate(185, 25) scale(1.35)"> <!-- 衣櫃 -->
	<path fill="#FFFFFF" d="M21,0H2C1.4,0,1,0.4,1,1v23h21V1C22,0.4,21.6,0,21,0z M3,2h8v18H3V2z M3,22v-1h8v1H3z M20,22h-8v-1h8V22z M20,20h-8V2h8V20   z"/>
	<path fill="#FFFFFF" d="M9.5,8C9.2,8,9,8.2,9,8.5v7C9,15.8,9.2,16,9.5,16s0.5-0.2,0.5-0.5v-7C10,8.2,9.8,8,9.5,8z"/>
	<path fill="#FFFFFF" d="M13.5,16c0.3,0,0.5-0.2,0.5-0.5v-7C14,8.2,13.8,8,13.5,8S13,8.2,13,8.5v7C13,15.8,13.2,16,13.5,16z"/>
</g>

<path fill="#FFFFFF" d="M40,30l-11,9.4V54h8v-7h6v7h8V39.4L40,30z M43,42h-6v-4h6V42z"/>
</svg>
